<svg width="25" height="25" viewBox="0 0 25 25" fill="none" xmlns="http://www.w3.org/2000/svg">
<path d="M12.5 0C10.0277 0 7.61099 0.733112 5.55538 2.10663C3.49976 3.48015 1.89761 5.43238 0.951511 7.71645C0.00541604 10.0005 -0.242126 12.5139 0.24019 14.9386C0.722505 17.3634 1.91301 19.5907 3.66117 21.3388C5.40933 23.087 7.63661 24.2775 10.0614 24.7598C12.4861 25.2421 14.9995 24.9946 17.2835 24.0485C19.5676 23.1024 21.5199 21.5002 22.8934 19.4446C24.2669 17.389 25 14.9723 25 12.5C24.9936 9.18674 23.6746 6.01101 21.3318 3.66818C18.989 1.32535 15.8133 0.00635333 12.5 0ZM12.5 23.0769C10.4081 23.0769 8.36315 22.4566 6.62378 21.2944C4.88441 20.1322 3.52874 18.4803 2.7282 16.5476C1.92766 14.6149 1.7182 12.4883 2.12631 10.4365C2.53443 8.38482 3.54178 6.50019 5.02099 5.02099C6.5002 3.54178 8.38483 2.53442 10.4365 2.12631C12.4883 1.7182 14.6149 1.92765 16.5476 2.7282C18.4803 3.52874 20.1322 4.88441 21.2944 6.62377C22.4566 8.36314 23.0769 10.4081 23.0769 12.5C23.0737 15.3042 21.9584 17.9926 19.9755 19.9755C17.9926 21.9584 15.3042 23.0737 12.5 23.0769ZM8.65385 12.5C8.65385 13.3072 8.90784 14.094 9.37984 14.7489C9.85184 15.4037 10.5179 15.8935 11.2837 16.1488C12.0496 16.4041 12.8763 16.4119 13.6468 16.1712C14.4173 15.9305 15.0926 15.4535 15.5769 14.8077C15.7318 14.6063 15.9594 14.4735 16.2109 14.4376C16.4624 14.4016 16.718 14.4654 16.9231 14.6154C17.1271 14.7684 17.262 14.9962 17.298 15.2486C17.3341 15.5011 17.2684 15.7575 17.1154 15.9615C16.3889 16.9302 15.376 17.6458 14.2202 18.0068C13.0644 18.3678 11.8243 18.3561 10.6756 17.9732C9.52689 17.5903 8.52776 16.8556 7.81976 15.8733C7.11176 14.891 6.73077 13.7109 6.73077 12.5C6.73077 11.2891 7.11176 10.109 7.81976 9.12667C8.52776 8.14437 9.52689 7.40973 10.6756 7.02683C11.8243 6.64392 13.0644 6.63215 14.2202 6.99319C15.376 7.35423 16.3889 8.06977 17.1154 9.03846C17.2684 9.24247 17.3341 9.49891 17.298 9.75136C17.262 10.0038 17.1271 10.2316 16.9231 10.3846C16.718 10.5345 16.4624 10.5984 16.2109 10.5624C15.9594 10.5265 15.7318 10.3937 15.5769 10.1923C15.0926 9.54651 14.4173 9.06949 13.6468 8.82879C12.8763 8.5881 12.0496 8.59594 11.2837 8.85122C10.5179 9.10649 9.85184 9.59624 9.37984 10.2511C8.90784 10.906 8.65385 11.6928 8.65385 12.5Z" fill="#555555"/>
</svg>
