<svg width="24" height="23" viewBox="0 0 24 23" fill="none" xmlns="http://www.w3.org/2000/svg">
<path fill-rule="evenodd" clip-rule="evenodd" d="M5.61361 2.10352H18.6034C20.1807 2.10352 21.3869 3.32086 21.3869 4.91278V14.277C21.3869 15.8689 20.1807 17.0863 18.6034 17.0863H7.84043L4.40741 20.551C4.22184 20.7383 4.03627 20.832 3.75792 20.832C3.66514 20.832 3.47957 20.832 3.38678 20.7383C3.01565 20.6447 2.83008 20.2701 2.83008 19.8955V4.91278C2.83008 3.32086 4.03627 2.10352 5.61361 2.10352ZM18.6034 15.2134C19.1601 15.2134 19.5312 14.8389 19.5312 14.277V4.91278C19.5312 4.35093 19.1601 3.97636 18.6034 3.97636H5.61361C5.0569 3.97636 4.68576 4.35093 4.68576 4.91278V17.6481L6.8198 15.4943C7.00537 15.3071 7.19094 15.2134 7.46929 15.2134H18.6034Z" fill="black"/>
<mask id="mask0_1768_10053" style="mask-type:luminance" maskUnits="userSpaceOnUse" x="2" y="2" width="20" height="19">
<path fill-rule="evenodd" clip-rule="evenodd" d="M5.61361 2.10352H18.6034C20.1807 2.10352 21.3869 3.32086 21.3869 4.91278V14.277C21.3869 15.8689 20.1807 17.0863 18.6034 17.0863H7.84043L4.40741 20.551C4.22184 20.7383 4.03627 20.832 3.75792 20.832C3.66514 20.832 3.47957 20.832 3.38678 20.7383C3.01565 20.6447 2.83008 20.2701 2.83008 19.8955V4.91278C2.83008 3.32086 4.03627 2.10352 5.61361 2.10352ZM18.6034 15.2134C19.1601 15.2134 19.5312 14.8389 19.5312 14.277V4.91278C19.5312 4.35093 19.1601 3.97636 18.6034 3.97636H5.61361C5.0569 3.97636 4.68576 4.35093 4.68576 4.91278V17.6481L6.8198 15.4943C7.00537 15.3071 7.19094 15.2134 7.46929 15.2134H18.6034Z" fill="white"/>
</mask>
<g mask="url(#mask0_1768_10053)">
<rect x="0.974609" y="0.230469" width="22.2682" height="22.4741" fill="#6E6B7B"/>
</g>
</svg>
